<svg width="1102" height="987" viewBox="0 0 1102 987" fill="none" xmlns="http://www.w3.org/2000/svg">
<path d="M9.74852 419.817C9.52909 422.068 8.91701 426.755 9.8525 429.058C15.6098 443.262 27.286 460.992 38.2 463.915C47.9129 466.516 57.9781 464.689 60.7672 459.774C61.6334 458.244 61.4428 455.522 61.027 452.768C59.3871 441.89 49.9283 443.934 43.3972 436.361C38.1019 430.223 29.6536 426.76 23.0359 422.004C20.0678 419.87 10.095 419.012 9.74852 419.817Z" fill="#C19259"/>
<path d="M44.2979 413.356C44.5116 400.217 45.118 379.087 45.8629 375.952C33.436 382.63 19.8656 381.888 9.49445 373.96C10.2163 377.726 11.8736 403.331 9.95061 415.22C9.12484 420.304 9.38471 425.881 12.7398 430.08C24.9588 448.61 33.1357 465.875 55.8414 459.578C69.9834 455.659 54.7096 435.789 47.4509 424.424C45.3085 421.051 44.2344 417.259 44.2979 413.356Z" fill="#33312F"/>
<path d="M13.5479 366.34C10.8281 367.738 10.8512 368.453 9.74821 369.983C8.29879 371.99 7.76181 378.276 11.4749 380.723C21.8749 387.576 37.755 385.018 41.7453 383.35C47.133 380.956 47.3929 376.29 47.4448 373.108C47.4795 370.936 46.3766 368.681 44.3266 367.918C37.8821 364.396 25.3628 362.13 13.5479 366.34Z" fill="#33312F"/>
<path d="M13.5479 366.335C10.8281 367.733 10.8512 368.448 9.7482 369.978C8.52399 371.673 7.98695 376.386 10.06 379.299C10.7703 388.397 11.4517 405.953 9.95033 415.215C9.12457 420.299 9.38443 425.876 12.7395 430.075C13.0455 430.541 13.34 431.002 13.6461 431.468C14.1427 428.836 17.8904 395.467 17.7403 383.642C18.3466 383.938 19.9462 384.277 20.8182 384.436C19.4149 382.757 20.1599 379.055 22.7353 377.7C26.6621 375.634 30.6812 373.696 34.4462 371.376C37.0506 369.777 39.5741 368.199 42.3632 367.013C35.5607 364.052 24.2887 362.511 13.5479 366.335Z" fill="#232221"/>
<path d="M81.0303 384.171C81.0303 384.171 80.9436 386.178 80.8051 387.052C80.9205 396.934 85.1995 396.314 99.5436 403.448C106.987 407.144 116.573 417.021 133.96 415.332C140.936 414.654 146.058 411.487 146.197 404.592C146.433 392.554 129.318 397.019 116.648 392.205C86.5739 380.782 81.9542 376.678 81.0303 384.171Z" fill="#C19259"/>
<path d="M86.0252 392.316C79.3382 387.523 81.4576 382.503 80.8339 374.739C78.2122 342.069 78.3797 339.12 77.0746 334.994C89.08 341.921 101.547 342.043 112.334 334.581C112.334 334.581 112.259 365.265 113.639 372.568C114.113 375.062 115.684 377.202 118.04 378.52C126.118 383.043 144.603 393.121 146.364 403.268C146.768 405.598 144.793 408.468 142.466 409.475C123.595 417.588 102.408 398.427 94.3349 395.578C91.5111 394.583 88.4101 394.027 86.0252 392.316Z" fill="#33312F"/>
<path d="M106.97 324.387C100.266 322.65 86.3314 322.274 78.8937 327.104C77.5598 328.507 76.4626 329.476 75.5502 331.102C74.3491 333.241 74.5628 339.543 78.5415 341.604C89.6923 347.376 106.063 343.812 109.655 341.508C113.443 339.077 113.715 333.607 113.391 330.44C113.166 328.285 111.746 325.435 106.97 324.387Z" fill="#33312F"/>
<path d="M85.3901 362.601C85.3092 355.605 84.8531 343.849 84.8531 343.849C85.6962 344.029 87.8386 344.452 89.3227 344.553C88.3121 343.96 88.0984 342.202 88.2312 340.719C88.9877 332.208 101.109 327.537 109.632 325.356C108.875 324.974 108.038 324.625 106.976 324.392C100.271 322.655 86.3371 322.279 78.8994 327.109C77.5655 328.512 76.4684 329.481 75.556 331.107C74.3953 333.178 74.5858 339.12 78.2122 341.37C78.6973 346.242 79.2632 355.108 80.8397 374.745C81.4634 382.503 79.3441 387.529 86.0311 392.321C86.0253 392.316 85.5113 373.039 85.3901 362.601Z" fill="#232221"/>
<path d="M145.757 215.822C149.482 214.959 153.206 214.101 156.971 213.36C160.003 212.761 164.328 212.703 165.662 210.209C163.127 207.968 161.262 206.613 158.577 203.997C153.662 199.204 123.346 152.595 123.346 152.595C123.346 152.595 114.199 71.4264 94.155 69.8059C85.9435 69.1439 74.5849 75.9066 77.8302 89.5115C80.4577 100.537 95.3042 156.848 101.189 166.794C102.066 168.282 145.116 214.26 145.116 214.26C145.324 214.736 145.543 215.282 145.757 215.822Z" fill="#F4BD98"/>
<path d="M126.817 134.06C120.251 107.025 108.834 76.5581 101.87 71.6436C93.855 65.993 80.4349 64.669 76.537 86.8849C74.0828 100.887 78.483 117.225 83.299 143.164C86.1055 153.39 129.38 146.754 126.817 134.06Z" fill="#EFEFEF"/>
<path d="M21.2684 197.695C21.5687 204.516 21.9324 213.381 21.9324 213.381C47.2829 217.485 99.4912 208.758 106.738 180.632C107.166 170.57 108.511 71.9774 91.0718 68.4769C83.7496 67.0046 20.8526 87.8012 15.0549 102.773C4.26795 130.623 19.5764 159.178 21.2684 197.695Z" fill="url(#paint0_radial_106_3)"/>
<path d="M114.136 288.444C114.731 273.34 114.367 258.204 113.143 243.133C110.971 216.51 108.904 192.219 108.355 174.61C107.587 149.974 106.623 133.843 105.168 122.965C102.488 94.0447 93.7804 74.6514 83.3052 69.9698C79.7654 69.9698 78.0388 71.5163 77.2997 73.8093C87.3995 78.3055 95.0623 98.8056 97.5396 122.065C86.8335 129.5 73.5635 135.119 56.6612 138.17C52.694 121.488 42.5249 92.9431 25.7901 92.7101C23.4052 92.6784 18.5777 95.9989 18.1677 98.1543C20.1484 96.788 35.8033 98.1542 43.9802 126.418C46.0706 133.652 48.4728 141.776 49.5065 149.169C52.3072 169.203 41.9475 167.794 34.504 165.337L19.8538 166.846C19.8538 166.846 22.5852 177.523 22.4813 195.211C22.4235 205.209 17.9944 230.476 17.1687 253.444C15.7943 291.478 13.2766 328.83 12.9301 340.645L11.3652 371.964C13.8541 382.09 44.4595 381.428 45.8973 372.028C46.3882 368.824 68.3547 275.75 68.3547 275.75C68.3547 275.75 76.445 324.598 77.3228 331.944C78.316 340.269 109.557 340.306 111.757 331.313C112.04 329.258 113.299 309.754 114.136 288.444Z" fill="#8B0026"/>
<path opacity="0.3" d="M76.1383 254.63C81.2489 251.908 84.9677 248.656 85.5625 245.373C82.4269 249.414 73.9959 253.264 67.4244 253.264L68.3484 275.76C70.3868 287.946 76.6291 326.187 77.3163 331.954C77.5358 333.776 79.2623 335.169 81.757 336.186C79.3721 302.441 76.8197 261.117 76.1383 254.63Z" fill="#8B0026"/>
<path d="M43.16 60.0774C44.8982 57.4772 50.0722 58.4622 53.202 58.4092C58.122 58.3245 63.0535 58.2662 67.9619 58.5151C69.1746 58.5786 75.2494 58.4145 75.6363 60.0456C76.312 62.9 80.4004 68.932 80.718 71.8341C82.2425 78.9994 85.0374 85.5449 81.8094 90.0358C81.6419 90.2688 78.2523 89.3633 78.2523 89.3633V107.025L70.9763 92.8744C63.0939 96.7933 49.0559 96.7351 43.7952 86.5142C44.8 75.8908 41.9242 65.4208 42.6402 61.4065C42.7326 60.8823 42.9117 60.4481 43.16 60.0774Z" fill="#EFB289"/>
<path d="M81.7691 76.0337C81.7691 76.0337 82.6006 81.6154 82.693 82.5263C82.8432 84.0038 82.156 87.1496 78.2582 89.3633C82.1156 92.5566 85.2108 95.4058 89.2068 99.3829C89.6226 98.3132 87.9652 88.6112 85.8286 82.9447C84.6044 79.7248 81.7691 76.0866 81.7691 76.0337Z" fill="#EFEFEF"/>
<path d="M70.9766 92.8744L66.328 108.264C39.4068 105.245 38.2576 91.3069 36.687 86.8955C37.2817 82.3093 41.9187 75.7266 43.7377 75.573C43.7377 75.573 43.9052 77.4213 44.1592 80.4664C45.6029 85.7569 53.1157 89.2045 57.6488 90.6661C61.5582 91.9318 65.8949 92.9486 70.9766 92.8744Z" fill="#EFEFEF"/>
<path d="M85.4015 72.3745C84.1946 76.966 83.0281 83.1091 78.1659 84.0624C69.2672 85.81 49.7029 80.8849 47.3295 74.8159C43.3277 64.6108 38.4135 52.1445 43.4316 39.0003C45.447 33.7203 35.8149 22.9699 40.8388 19.1304C44.4537 16.366 63.4002 22.3766 67.4771 20.7561C79.4536 15.9899 90.5062 15.7146 91.1529 26.9788C91.4763 32.6718 87.157 65.7124 85.4015 72.3745Z" fill="#F3BC97"/>
<path d="M87.9595 11.8802C82.3061 4.90561 73.292 0.536556 63.8332 0.0546361C48.3399 -0.739737 34.5386 7.23058 33.5107 17.282C33.5107 17.282 15.4651 25.4906 34.631 59.9452C37.4836 65.0821 41.5143 71.0558 46.1628 71.5377C46.1628 71.5377 45.0946 66.8296 44.0551 62.8471C42.8887 58.3775 40.3363 52.3191 43.7202 49.3429C44.9444 48.2625 47.133 48.5221 48.5824 49.057C52.2897 50.418 50.2802 56.7411 54.7093 56.7411C58.1163 56.7411 55.2232 46.4619 55.0499 40.9437C57.9315 42.9614 82.4793 19.5963 91.0777 29.6742C93.9823 24.7862 93.0469 18.161 87.9595 11.8802Z" fill="#352920"/>
<path d="M166.679 211.405C164.473 208.588 157.555 202.148 155.857 200.676C151.139 196.604 138.516 207.153 140.959 209.319C141.022 209.377 152.19 227.346 154.379 229.628C155.603 230.905 159.201 233.251 165.253 232.975C166.633 232.912 173.135 231.021 173.799 229.655C176.369 224.391 171.177 217.141 166.679 211.405Z" fill="#F4BD98"/>
<path d="M183.864 226.461C183.87 228.585 181.981 231.185 178.898 233.881C178.511 234.22 178.107 234.559 177.685 234.898C176.842 235.576 175.93 236.259 174.959 236.942C172.534 238.642 169.739 240.331 166.748 241.915C154.211 248.55 138.239 253.354 131.355 249.684L86.6311 226.011L86.6599 235.088L131.384 258.761C138.268 262.431 154.24 257.627 166.777 250.992C176.34 245.929 183.904 239.796 183.887 235.544L183.864 226.461Z" fill="url(#paint1_linear_106_3)"/>
<path d="M166.754 241.909C154.223 248.545 138.244 253.348 131.361 249.678L86.6367 226.006L136.772 199.458L181.496 223.13C188.38 226.8 179.285 235.274 166.754 241.909Z" fill="#F0ECE6"/>
<path opacity="0.7" d="M169.878 228.866C166.655 230.576 161.441 230.576 158.236 228.866C155.031 227.16 155.043 224.385 158.265 222.675C161.487 220.964 166.719 220.964 169.924 222.675C173.129 224.385 173.106 227.16 169.878 228.866Z" fill="#727272"/>
<path d="M170.865 224.608C170.507 224.009 169.97 223.607 169.808 223.496C169.271 223.12 168.734 222.834 168.214 222.648C167.342 222.336 166.828 222.214 165.818 222.066C165.165 221.97 163.427 221.811 161.319 222.341C160.424 222.569 159.16 223.035 158.19 223.983C157.63 224.534 157.335 225.174 157.323 225.884C157.323 226.821 157.999 227.764 159.345 228.479C162.053 229.919 166.447 229.919 169.173 228.479C170.547 227.753 171.229 226.8 171.229 225.847C171.206 225.519 171.182 225.137 170.865 224.608Z" fill="#33312F"/>
<path d="M167.625 226.933C169.491 225.948 169.502 224.343 167.654 223.358C165.806 222.373 162.786 222.373 160.921 223.358C159.062 224.343 159.05 225.942 160.904 226.933C162.752 227.923 165.76 227.923 167.625 226.933Z" fill="#2B2928"/>
<path d="M171.229 226.038C171.229 226.181 171.211 226.324 171.177 226.467C171.084 226.821 171.038 226.948 170.98 227.065C170.853 227.303 170.801 227.383 170.749 227.462C170.466 227.822 170.368 227.923 170.27 228.018C169.623 228.558 169.444 228.664 169.04 228.892C167.654 229.549 166.418 229.814 165.263 229.904C164.934 229.93 164.68 229.941 164.426 229.941C163.912 229.946 163.681 229.935 163.456 229.919C162.642 229.861 162.116 229.782 161.741 229.692C161.106 229.533 160.881 229.469 160.655 229.39C160.407 229.305 160.176 229.21 159.87 229.083C159.506 228.924 158.917 228.58 158.669 228.373C158.357 228.119 157.97 227.801 157.687 227.314C157.479 226.954 157.399 226.694 157.364 226.451C157.341 226.276 157.329 226.175 157.323 226.069C157.323 226.827 157.999 227.764 159.345 228.484C162.053 229.925 166.447 229.925 169.173 228.484C170.547 227.759 171.229 226.805 171.229 225.852V226.038Z" fill="#2B2928"/>
<path d="M163.006 232.837C162.602 233.049 161.99 233.076 161.637 232.891C161.285 232.705 161.331 232.382 161.735 232.165C162.14 231.953 162.752 231.927 163.104 232.112C163.456 232.297 163.41 232.626 163.006 232.837ZM177.454 224.518C177.102 224.332 176.49 224.354 176.085 224.571C175.681 224.783 175.635 225.111 175.987 225.296C176.339 225.482 176.952 225.46 177.356 225.243C177.76 225.026 177.806 224.703 177.454 224.518ZM151.607 226.027C151.255 225.842 150.642 225.863 150.238 226.08C149.834 226.297 149.788 226.62 150.14 226.806C150.492 226.991 151.104 226.97 151.509 226.753C151.913 226.536 151.953 226.213 151.607 226.027ZM165.951 218.428C165.599 218.242 164.987 218.263 164.582 218.481C164.178 218.698 164.132 219.021 164.484 219.206C164.836 219.392 165.449 219.37 165.853 219.153C166.257 218.941 166.303 218.613 165.951 218.428Z" fill="#33312F"/>
<path opacity="0.7" d="M143.563 242.799C140.341 244.51 135.126 244.51 131.921 242.799C128.711 241.094 128.728 238.313 131.95 236.608C135.172 234.898 140.41 234.898 143.609 236.608C146.814 238.319 146.791 241.094 143.563 242.799Z" fill="#727272"/>
<path d="M144.544 238.541C144.186 237.943 143.644 237.54 143.488 237.429C142.951 237.053 142.414 236.767 141.894 236.582C141.022 236.269 140.508 236.148 139.497 235.999C138.845 235.904 137.107 235.745 134.999 236.28C134.104 236.508 132.839 236.974 131.869 237.922C131.309 238.472 131.014 239.113 131.003 239.823C131.009 240.76 131.679 241.703 133.024 242.418C135.732 243.858 140.127 243.858 142.852 242.418C144.227 241.692 144.908 240.739 144.908 239.786C144.891 239.452 144.868 239.076 144.544 238.541Z" fill="#33312F"/>
<path d="M141.305 240.872C143.17 239.887 143.182 238.282 141.334 237.297C139.486 236.312 136.466 236.312 134.6 237.297C132.741 238.282 132.73 239.887 134.583 240.872C136.437 241.857 139.445 241.857 141.305 240.872Z" fill="#2B2928"/>
<path d="M144.914 239.972C144.914 240.115 144.897 240.258 144.862 240.401C144.77 240.761 144.723 240.888 144.666 240.999C144.539 241.237 144.487 241.322 144.435 241.396C144.152 241.756 144.054 241.857 143.955 241.952C143.309 242.492 143.13 242.593 142.725 242.821C141.339 243.477 140.104 243.742 138.949 243.832C138.62 243.859 138.366 243.869 138.111 243.875C137.598 243.88 137.367 243.869 137.141 243.853C136.327 243.795 135.802 243.716 135.426 243.626C134.791 243.467 134.566 243.403 134.341 243.324C134.092 243.239 133.861 243.144 133.555 243.017C133.186 242.858 132.603 242.514 132.348 242.307C132.037 242.053 131.65 241.735 131.367 241.248C131.159 240.888 131.078 240.628 131.043 240.379C131.02 240.205 131.009 240.104 131.003 239.998C131.003 240.755 131.679 241.693 133.024 242.413C135.732 243.853 140.127 243.853 142.852 242.413C144.227 241.687 144.908 240.734 144.908 239.781V239.972H144.914Z" fill="#2B2928"/>
<path d="M136.691 246.771C136.287 246.988 135.675 247.009 135.322 246.824C134.97 246.638 135.016 246.315 135.421 246.098C135.825 245.881 136.437 245.86 136.789 246.045C137.141 246.236 137.095 246.559 136.691 246.771ZM151.133 238.451C150.781 238.266 150.169 238.287 149.765 238.504C149.361 238.721 149.314 239.044 149.667 239.229C150.019 239.415 150.631 239.394 151.035 239.177C151.445 238.965 151.486 238.636 151.133 238.451ZM125.286 239.96C124.934 239.775 124.322 239.796 123.918 240.013C123.513 240.225 123.467 240.553 123.82 240.739C124.172 240.924 124.784 240.903 125.188 240.686C125.598 240.469 125.638 240.146 125.286 239.96ZM139.636 232.361C139.284 232.175 138.672 232.197 138.268 232.414C137.863 232.626 137.817 232.954 138.169 233.139C138.522 233.325 139.134 233.304 139.538 233.086C139.942 232.875 139.988 232.546 139.636 232.361Z" fill="#33312F"/>
<path d="M137.812 202.662L92.8505 226.472L115.816 238.631L160.777 214.826L137.812 202.662Z" fill="#33312F"/>
<path d="M107.431 222.405L130.893 209.986L146.433 218.211L122.97 230.635L107.431 222.405Z" fill="#9BBCBA"/>
<path d="M151.994 213.587C152.946 214.09 152.946 214.911 151.994 215.42C151.041 215.923 149.493 215.923 148.535 215.42C147.582 214.916 147.582 214.096 148.535 213.587C149.493 213.079 151.041 213.079 151.994 213.587Z" fill="#933131"/>
<path d="M145.907 210.362C146.86 210.865 146.86 211.686 145.907 212.195C144.955 212.698 143.407 212.698 142.448 212.195C141.49 211.691 141.496 210.871 142.448 210.362C143.401 209.854 144.949 209.854 145.907 210.362Z" fill="#933131"/>
<path d="M139.815 207.137C140.768 207.64 140.768 208.461 139.815 208.969C138.862 209.472 137.314 209.472 136.356 208.969C135.403 208.466 135.403 207.645 136.356 207.137C137.314 206.634 138.862 206.634 139.815 207.137Z" fill="#933131"/>
<path d="M117.358 231.921C118.311 232.424 118.311 233.245 117.358 233.753C116.405 234.257 114.857 234.257 113.899 233.753C112.946 233.25 112.946 232.43 113.899 231.921C114.857 231.418 116.405 231.418 117.358 231.921Z" fill="#933131"/>
<path d="M109.545 230.904C110.894 230.904 111.988 230.326 111.988 229.612C111.988 228.899 110.894 228.32 109.545 228.32C108.196 228.32 107.102 228.899 107.102 229.612C107.102 230.326 108.196 230.904 109.545 230.904Z" fill="#933131"/>
<path d="M105.185 225.476C106.138 225.98 106.138 226.8 105.185 227.309C104.232 227.812 102.684 227.812 101.726 227.309C100.773 226.806 100.773 225.985 101.726 225.476C102.679 224.973 104.226 224.973 105.185 225.476Z" fill="#933131"/>
<path d="M91.7883 247.571C98.4638 250.409 110.741 250.272 114.061 249.588C110.839 247.661 107.097 245.728 104.146 243.472C100.358 240.575 96.5755 237 96.1308 232.494C96.0789 231.964 96.0846 231.387 96.408 230.942C96.9508 230.195 98.0827 230.126 99.0586 230.041C100.277 229.936 101.484 229.692 102.633 229.316C103.54 229.019 104.44 228.622 105.081 227.966C105.728 227.309 106.069 226.345 105.728 225.519C105.214 224.258 103.493 223.872 102.032 223.776C98.7179 223.554 95.3628 223.898 92.1752 224.767C89.9231 225.381 87.596 227.219 85.4305 226.017C82.2833 224.269 79.396 221.838 76.4568 219.805C71.5945 216.436 66.7266 213.068 61.8644 209.7C55.3218 205.172 48.7733 200.639 42.2307 196.111C42.2307 196.111 39.8632 124.686 29.5093 108.508C24.7337 101.046 7.46177 97.2753 4.70728 118.459C-0.0452147 154.957 12.4799 196.556 17.0303 204.6C21.5807 212.645 74.2682 239.15 74.2682 239.15C83.2304 243.774 90.6565 247.089 91.7883 247.571Z" fill="#F4BD98"/>
<path d="M47.9703 169.553C46.798 141.014 40.8502 109.678 30.2019 101.406C22.487 95.4112 7.28248 94.9611 2.63969 117.055C-0.288031 130.983 -0.66915 149.471 0.947739 174.022C3.65025 185.271 49.2061 181.082 47.9703 169.553Z" fill="#EFEFEF"/>
<path d="M205.109 266.635C205.369 266.635 205.629 266.508 205.767 266.286C205.975 265.952 205.854 265.523 205.49 265.327L168.504 245.743C168.151 245.553 167.684 245.659 167.458 245.998C167.251 246.331 167.372 246.76 167.736 246.956L204.722 266.54C204.849 266.609 204.976 266.635 205.109 266.635Z" fill="#33312F"/>
<path d="M154.905 208.705C156.239 209.976 159.796 215.965 159.796 215.965C160.627 217.882 161.003 223.713 162.371 225.206C164.26 227.261 166.084 225.031 166.24 222.866C166.414 220.498 166.702 215.504 166.252 213.338C165.721 210.759 162.799 207.026 158.046 202.667C158.046 202.561 154.708 208.519 154.905 208.705Z" fill="#F4BD98"/>
<path d="M97.4878 132.032C87.7403 139.255 67.6909 144.954 67.6909 144.954L70.2201 170.172C88.0868 171.126 98.5735 158.516 98.5735 158.516L97.4878 132.032Z" fill="#D10B41"/>
<path d="M253.292 165.93C249.077 165.93 245.167 165.024 241.72 163.208C233.405 158.818 228.802 149.64 228.762 137.375C228.687 112.288 247.991 81.6204 271.8 69.0163L272.198 69.6518L271.8 69.0163C283.522 62.8096 294.592 61.83 302.96 66.2414C311.269 70.6316 315.872 79.804 315.906 92.0797C315.987 117.166 296.683 147.829 272.874 160.438C265.979 164.087 259.315 165.93 253.292 165.93ZM291.387 64.9863C285.642 64.9863 279.243 66.7655 272.597 70.2873C249.233 82.6583 230.286 112.754 230.361 137.375C230.396 149.094 234.715 157.811 242.517 161.932C250.382 166.089 260.874 165.098 272.071 159.167C295.435 146.796 314.382 116.7 314.307 92.0797C314.272 80.3547 309.959 71.6325 302.163 67.5123C298.964 65.8283 295.326 64.9863 291.387 64.9863Z" fill="black"/>
<path d="M272.654 123.479C276.973 121.191 280.502 123.034 280.519 127.588C280.531 132.143 277.025 137.671 272.706 139.959C268.387 142.247 264.858 140.441 264.841 135.892C264.829 131.338 268.335 125.766 272.654 123.479ZM257.23 130.39L260.758 132.233C261.503 125.544 266.533 117.992 272.689 114.735C278.804 111.494 283.868 113.697 284.688 119.48L288.194 113.951C285.993 108.216 279.901 106.437 272.671 110.266C265.413 114.11 259.349 122.366 257.23 130.39ZM250.67 126.963L253.852 128.669C257.08 119.332 264.252 110.207 272.66 105.754C281.033 101.321 288.24 102.836 291.508 108.645L294.673 103.619C290.48 97.5238 282.165 96.237 272.648 101.279C263.091 106.341 254.811 116.414 250.67 126.963ZM244.416 123.696L247.523 125.321C252.541 113.544 261.89 102.459 272.631 96.7718C283.337 91.1052 292.686 92.2862 297.797 98.6623L300.886 93.7584C294.933 87.0645 284.475 86.0266 272.619 92.3021C260.73 98.5936 250.312 110.684 244.416 123.696Z" fill="black"/>
<path d="M162.798 238.218C162.798 240.22 161.031 241.84 158.848 241.84C156.666 241.84 154.899 240.22 154.899 238.218C154.899 236.216 156.666 234.595 158.848 234.595C161.025 234.595 162.798 236.216 162.798 238.218Z" fill="black"/>
<path d="M272.655 238.949H158.849C158.404 238.949 158.046 238.615 158.046 238.213C158.046 237.81 158.404 237.476 158.849 237.476H271.852V159.797C271.852 159.395 272.21 159.061 272.655 159.061C273.099 159.061 273.457 159.395 273.457 159.797V238.213C273.451 238.62 273.093 238.949 272.655 238.949Z" fill="black"/>
<path d="M532.95 987L531.986 986.491L69.0587 742.367L71.9593 740.836L638.108 441.665L639.073 442.171L1102 686.297L1099.1 687.825L532.95 987ZM76.7848 742.367L532.95 982.925L1094.27 686.301L638.108 445.743L76.7848 742.367Z" fill="#686868"/>
<path d="M570.976 720.444V413.104L704.299 381.126L728.857 368.134C734.492 365.15 744.338 365.527 750.846 368.969L773.757 381.092L844.865 381.053L823.807 677.748C823.967 679.767 822.74 681.713 820.033 683.145L686.984 775.147C681.35 778.131 671.503 777.757 664.995 774.312L576.328 727.396C572.577 725.411 570.766 722.837 570.976 720.444Z" fill="#757575"/>
<path d="M739.058 366.132C743.183 366.223 747.464 367.176 750.846 368.965L773.757 381.088L844.865 381.05V689.217C845.025 691.237 843.798 693.183 841.091 694.615L686.988 775.144C684.281 776.576 680.599 777.226 676.783 777.142L675.193 467.049L739.058 366.132Z" fill="white"/>
<path d="M685.57 775.783C680.709 777.69 673.676 777.585 667.992 775.598V463.388H685.57V775.783Z" fill="#A53339"/>
<path d="M686.984 467.088L841.087 386.559C846.722 383.576 846.017 378.37 839.509 374.925L750.845 328.009C744.338 324.564 734.495 324.19 728.857 327.174L574.753 407.703C569.119 410.686 569.824 415.892 576.332 419.336L664.999 466.253C671.507 469.694 681.35 470.071 686.984 467.088Z" fill="white"/>
<path d="M576.332 413.625L664.999 460.541C671.507 463.986 681.35 464.359 686.988 461.376L841.091 380.847C842.349 380.183 843.272 379.404 843.904 378.562C845.841 381.417 844.964 384.515 841.091 386.563L686.988 467.091C681.353 470.075 671.507 469.701 664.999 466.256L576.332 419.34C571.273 416.664 569.74 412.926 571.94 409.995C572.825 411.294 574.292 412.545 576.332 413.625Z" fill="white"/>
<path d="M682.627 434.45L785.228 379.946C787.866 378.552 787.534 376.113 784.488 374.503L742.996 352.549C739.95 350.938 735.345 350.763 732.707 352.157L630.106 406.662C627.468 408.056 627.8 410.494 630.846 412.105L672.337 434.059C675.383 435.673 679.989 435.848 682.627 434.45Z" fill="#676767"/>
<path d="M738.017 382.395L743.964 379.251C744.33 379.058 744.284 378.72 743.861 378.496L738.12 375.46C737.697 375.236 737.06 375.212 736.698 375.404L730.751 378.548C730.385 378.741 730.431 379.079 730.854 379.303L736.595 382.339C737.015 382.563 737.651 382.587 738.017 382.395Z" fill="white"/>
<path d="M718.156 392.862L724.103 389.718C724.469 389.525 724.423 389.187 724 388.963L718.259 385.927C717.84 385.703 717.199 385.679 716.837 385.871L710.89 389.015C710.524 389.208 710.57 389.546 710.993 389.77L716.734 392.806C717.153 393.03 717.79 393.054 718.156 392.862Z" fill="white"/>
<path d="M698.291 403.329L704.234 400.185C704.6 399.993 704.554 399.654 704.131 399.43L698.39 396.394C697.967 396.17 697.33 396.146 696.968 396.338L691.024 399.482C690.659 399.675 690.704 400.013 691.127 400.237L696.869 403.273C697.288 403.497 697.928 403.521 698.291 403.329Z" fill="#C50036"/>
<path d="M678.429 413.792L684.376 410.648C684.742 410.456 684.697 410.117 684.273 409.893L678.532 406.857C678.109 406.634 677.472 406.609 677.107 406.801L671.163 409.946C670.797 410.138 670.843 410.477 671.266 410.7L677.007 413.736C677.427 413.963 678.063 413.988 678.429 413.792Z" fill="white"/>
<path d="M785.224 379.946L785.102 380.012C784.904 379.879 784.717 379.747 784.484 379.624L742.993 357.67C739.947 356.06 735.342 355.885 732.704 357.279L630.229 411.717C627.796 410.12 627.671 407.951 630.107 406.662L732.707 352.157C735.345 350.763 739.951 350.938 742.997 352.549L784.488 374.503C787.53 376.113 787.862 378.552 785.224 379.946Z" fill="#A53339"/>
<path d="M647.684 527.978L589.35 497.37C586.068 495.634 583.407 490.974 583.407 486.963V467.846C583.407 463.835 586.068 461.99 589.35 463.727L647.684 494.334C650.967 496.071 653.628 500.731 653.628 504.742V523.859C653.628 527.873 650.967 529.715 647.684 527.978Z" fill="#676767"/>
<path d="M586.464 463.15C585.545 463.943 584.974 465.295 584.974 467.13V486.247C584.974 490.258 587.634 494.918 590.917 496.654L649.251 527.262C650.303 527.821 651.279 527.971 652.14 527.839C651.05 528.782 649.472 528.922 647.688 527.978L589.354 497.371C586.071 495.634 583.411 490.974 583.411 486.963V467.846C583.407 465.121 584.646 463.433 586.464 463.15Z" fill="white"/>
<path d="M630.14 507.212L624.788 504.382C624.071 504.005 623.492 502.988 623.492 502.115V496.878C623.492 496.005 624.071 495.603 624.788 495.98L630.14 498.81C630.857 499.187 631.437 500.204 631.437 501.077V506.314C631.437 507.188 630.853 507.59 630.14 507.212Z" fill="#757575"/>
<path d="M612.246 497.744L606.894 494.911C606.177 494.534 605.598 493.517 605.598 492.643V487.406C605.598 486.533 606.177 486.131 606.894 486.509L612.246 489.342C612.963 489.719 613.542 490.736 613.542 491.609V496.846C613.542 497.72 612.963 498.122 612.246 497.744Z" fill="white"/>
<path d="M647.684 666.128L589.35 635.52C586.068 633.784 583.407 629.123 583.407 625.113V605.995C583.407 601.985 586.068 600.14 589.35 601.876L647.684 632.484C650.967 634.22 653.628 638.881 653.628 642.892V662.009C653.628 666.023 650.967 667.868 647.684 666.128Z" fill="#676767"/>
<path d="M586.464 601.3C585.545 602.093 584.974 603.445 584.974 605.279V624.396C584.974 628.407 587.634 633.068 590.917 634.804L649.251 665.412C650.303 665.971 651.279 666.121 652.14 665.988C651.05 666.928 649.472 667.071 647.688 666.128L589.354 635.52C586.071 633.784 583.411 629.123 583.411 625.113V605.995C583.407 603.27 584.646 601.583 586.464 601.3Z" fill="white"/>
<path d="M630.14 645.361L624.788 642.531C624.071 642.154 623.492 641.138 623.492 640.264V635.027C623.492 634.154 624.071 633.752 624.788 634.129L630.14 636.959C630.857 637.336 631.437 638.353 631.437 639.226V644.464C631.437 645.337 630.853 645.739 630.14 645.361Z" fill="#757575"/>
<path d="M612.246 635.894L606.894 633.064C606.177 632.686 605.598 631.67 605.598 630.796V625.559C605.598 624.686 606.177 624.284 606.894 624.662L612.246 627.491C612.963 627.869 613.542 628.885 613.542 629.759V634.996C613.542 635.869 612.963 636.271 612.246 635.894Z" fill="white"/>
<path d="M647.684 735.204L589.35 704.596C586.068 702.86 583.407 698.2 583.407 694.189V675.072C583.407 671.061 586.068 669.216 589.35 670.953L647.684 701.56C650.967 703.297 653.628 707.957 653.628 711.968V731.085C653.628 735.096 650.967 736.941 647.684 735.204Z" fill="#676767"/>
<path d="M586.464 670.376C585.545 671.169 584.974 672.521 584.974 674.355V693.473C584.974 697.483 587.634 702.144 590.917 703.88L649.251 734.488C650.303 735.047 651.279 735.197 652.14 735.065C651.05 736.008 649.472 736.148 647.688 735.204L589.354 704.596C586.071 702.86 583.411 698.2 583.411 694.189V675.072C583.407 672.347 584.646 670.659 586.464 670.376Z" fill="white"/>
<path d="M630.14 714.434L624.788 711.605C624.071 711.227 623.492 710.211 623.492 709.337V704.1C623.492 703.227 624.071 702.825 624.788 703.202L630.14 706.032C630.857 706.41 631.437 707.426 631.437 708.3V713.537C631.437 714.413 630.853 714.815 630.14 714.434Z" fill="#757575"/>
<path d="M612.246 704.97L606.894 702.14C606.177 701.763 605.598 700.746 605.598 699.873V694.636C605.598 693.762 606.177 693.361 606.894 693.738L612.246 696.568C612.963 696.945 613.542 697.962 613.542 698.835V704.072C613.542 704.946 612.963 705.347 612.246 704.97Z" fill="white"/>
<path d="M647.684 597.055L589.35 566.447C586.068 564.711 583.407 560.05 583.407 556.039V536.922C583.407 532.911 586.068 531.067 589.35 532.803L647.684 563.411C650.967 565.147 653.628 569.808 653.628 573.819V592.936C653.628 596.946 650.967 598.791 647.684 597.055Z" fill="#676767"/>
<path d="M586.464 532.227C585.545 533.02 584.974 534.372 584.974 536.203V555.32C584.974 559.33 587.634 563.991 590.917 565.727L649.251 596.335C650.303 596.894 651.279 597.044 652.14 596.912C651.05 597.855 649.472 597.995 647.688 597.051L589.354 566.444C586.071 564.707 583.411 560.047 583.411 556.036V536.919C583.407 534.197 584.646 532.51 586.464 532.227Z" fill="white"/>
<path d="M630.14 576.285L624.788 573.452C624.071 573.074 623.492 572.058 623.492 571.184V565.947C623.492 565.074 624.071 564.672 624.788 565.05L630.14 567.879C630.857 568.257 631.437 569.273 631.437 570.147V575.384C631.437 576.264 630.853 576.666 630.14 576.285Z" fill="#757575"/>
<path d="M612.246 566.817L606.894 563.987C606.177 563.61 605.598 562.593 605.598 561.72V556.483C605.598 555.61 606.177 555.208 606.894 555.585L612.246 558.415C612.963 558.792 613.542 559.809 613.542 560.682V565.919C613.542 566.796 612.963 567.198 612.246 566.817Z" fill="white"/>
<path d="M698.211 508.407L832.796 437.199C835.807 435.606 838.251 431.33 838.251 427.648V404.128C838.251 400.446 835.807 398.755 832.796 400.348L698.211 471.556C695.199 473.149 692.756 477.425 692.756 481.107V504.627C692.756 508.309 695.199 510.003 698.211 508.407Z" fill="#A53339"/>
<path opacity="0.4" d="M702.073 500.162L828.93 433.042C830.459 432.235 831.698 430.065 831.698 428.196V410.515C831.698 408.646 830.459 407.79 828.93 408.597L702.073 475.717C700.544 476.524 699.305 478.693 699.305 480.563V498.244C699.305 500.113 700.544 500.972 702.073 500.162Z" fill="white"/>
<path d="M802.493 438.09L821.424 428.074C822.907 427.288 824.112 425.181 824.112 423.368C824.112 421.555 822.907 420.72 821.424 421.506L802.493 431.522C801.01 432.308 799.805 434.415 799.805 436.228C799.805 438.045 801.01 438.877 802.493 438.09Z" fill="white"/>
<path d="M786.359 443.345C786.359 445.158 787.747 445.892 789.463 444.987C791.178 444.079 792.566 441.874 792.566 440.061C792.566 438.248 791.178 437.514 789.463 438.419C787.751 439.327 786.359 441.532 786.359 443.345Z" fill="#676767"/>
<path d="M775.415 449.137C775.415 450.95 776.803 451.684 778.518 450.779C780.233 449.871 781.621 447.666 781.621 445.853C781.621 444.04 780.23 443.306 778.518 444.211C776.803 445.116 775.415 447.324 775.415 449.137Z" fill="#676767"/>
<path d="M764.466 454.926C764.466 456.739 765.854 457.473 767.57 456.568C769.285 455.663 770.673 453.455 770.673 451.642C770.673 449.829 769.285 449.095 767.57 450C765.858 450.908 764.466 453.113 764.466 454.926Z" fill="white"/>
<path d="M753.522 460.719C753.522 462.532 754.909 463.269 756.625 462.361C758.34 461.452 759.728 459.248 759.728 457.435C759.728 455.621 758.34 454.888 756.625 455.793C754.909 456.701 753.522 458.905 753.522 460.719Z" fill="#676767"/>
<path d="M707.41 490.317L713.787 486.942C714.74 486.439 715.51 485.087 715.51 483.923V477.74C715.51 476.576 714.737 476.042 713.787 476.545L707.41 479.92C706.457 480.423 705.687 481.775 705.687 482.938V489.122C705.687 490.285 706.457 490.82 707.41 490.317Z" fill="#676767"/>
<path d="M698.211 549.88L832.796 478.669C835.807 477.076 838.251 472.8 838.251 469.117V445.598C838.251 441.919 835.807 440.225 832.796 441.818L698.211 513.026C695.199 514.619 692.756 518.895 692.756 522.577V546.096C692.756 549.782 695.199 551.477 698.211 549.88Z" fill="#A53339"/>
<path opacity="0.4" d="M702.073 541.635L828.93 474.515C830.459 473.705 831.698 471.535 831.698 469.67V451.988C831.698 450.119 830.459 449.263 828.93 450.07L702.073 517.19C700.544 518.001 699.305 520.17 699.305 522.036V539.717C699.305 541.586 700.544 542.442 702.073 541.635Z" fill="white"/>
<path d="M802.493 479.563L821.424 469.547C822.907 468.761 824.112 466.655 824.112 464.841C824.112 463.028 822.907 462.193 821.424 462.979L802.493 472.995C801.01 473.782 799.805 475.888 799.805 477.701C799.805 479.515 801.01 480.35 802.493 479.563Z" fill="white"/>
<path d="M786.359 484.818C786.359 486.631 787.747 487.368 789.463 486.46C791.178 485.552 792.566 483.347 792.566 481.534C792.566 479.721 791.178 478.983 789.463 479.892C787.751 480.797 786.359 483.005 786.359 484.818Z" fill="white"/>
<path d="M775.415 490.607C775.415 492.42 776.803 493.158 778.518 492.249C780.233 491.344 781.621 489.136 781.621 487.323C781.621 485.51 780.23 484.776 778.518 485.681C776.803 486.589 775.415 488.794 775.415 490.607Z" fill="#676767"/>
<path d="M764.466 496.399C764.466 498.212 765.854 498.946 767.57 498.041C769.285 497.133 770.673 494.928 770.673 493.115C770.673 491.302 769.285 490.565 767.57 491.473C765.858 492.382 764.466 494.586 764.466 496.399Z" fill="white"/>
<path d="M753.522 502.192C753.522 504.005 754.909 504.739 756.625 503.834C758.34 502.925 759.728 500.721 759.728 498.908C759.728 497.094 758.34 496.361 756.625 497.266C754.909 498.174 753.522 500.379 753.522 502.192Z" fill="#676767"/>
<path d="M707.41 531.79L713.787 528.415C714.74 527.912 715.51 526.56 715.51 525.397V519.213C715.51 518.05 714.737 517.515 713.787 518.018L707.41 521.393C706.457 521.896 705.687 523.248 705.687 524.412V530.595C705.687 531.759 706.457 532.293 707.41 531.79Z" fill="#676767"/>
<path d="M698.211 591.353L832.796 520.142C835.807 518.549 838.251 514.273 838.251 510.591V487.071C838.251 483.389 835.807 481.698 832.796 483.291L698.211 554.499C695.199 556.092 692.756 560.368 692.756 564.05V587.57C692.756 591.256 695.199 592.946 698.211 591.353Z" fill="#A53339"/>
<path opacity="0.4" d="M702.073 583.108L828.93 515.988C830.459 515.181 831.698 513.012 831.698 511.142V493.461C831.698 491.592 830.459 490.736 828.93 491.543L702.073 558.663C700.544 559.47 699.305 561.64 699.305 563.509V581.19C699.305 583.059 700.544 583.915 702.073 583.108Z" fill="white"/>
<path d="M802.493 521.037L821.424 511.02C822.907 510.234 824.112 508.128 824.112 506.314C824.112 504.501 822.907 503.666 821.424 504.452L802.493 514.469C801.01 515.255 799.805 517.361 799.805 519.174C799.805 520.988 801.01 521.823 802.493 521.037Z" fill="white"/>
<path d="M786.359 526.291C786.359 528.104 787.747 528.838 789.463 527.933C791.178 527.025 792.566 524.82 792.566 523.007C792.566 521.194 791.178 520.46 789.463 521.365C787.751 522.27 786.359 524.474 786.359 526.291Z" fill="white"/>
<path d="M775.415 532.08C775.415 533.893 776.803 534.627 778.518 533.722C780.233 532.814 781.621 530.609 781.621 528.796C781.621 526.983 780.23 526.249 778.518 527.154C776.803 528.062 775.415 530.267 775.415 532.08Z" fill="#676767"/>
<path d="M764.466 537.873C764.466 539.686 765.854 540.42 767.57 539.515C769.285 538.61 770.673 536.402 770.673 534.589C770.673 532.775 769.285 532.042 767.57 532.947C765.858 533.855 764.466 536.059 764.466 537.873Z" fill="white"/>
<path d="M753.522 543.665C753.522 545.478 754.909 546.216 756.625 545.307C758.34 544.399 759.728 542.194 759.728 540.381C759.728 538.568 758.34 537.831 756.625 538.739C754.909 539.647 753.522 541.852 753.522 543.665Z" fill="#676767"/>
<path d="M707.41 573.263L713.787 569.888C714.74 569.385 715.51 568.033 715.51 566.87V560.686C715.51 559.523 714.737 558.988 713.787 559.491L707.41 562.866C706.457 563.369 705.687 564.721 705.687 565.885V572.068C705.687 573.232 706.457 573.766 707.41 573.263Z" fill="#676767"/>
<path d="M698.211 632.826L832.796 561.615C835.807 560.022 838.251 555.746 838.251 552.064V528.544C838.251 524.865 835.807 523.171 832.796 524.764L698.211 595.972C695.199 597.565 692.756 601.841 692.756 605.523V629.043C692.756 632.728 695.199 634.419 698.211 632.826Z" fill="#A53339"/>
<path opacity="0.4" d="M702.073 624.581L828.93 557.462C830.459 556.651 831.698 554.485 831.698 552.616V534.935C831.698 533.065 830.459 532.209 828.93 533.017L702.073 600.136C700.544 600.943 699.305 603.113 699.305 604.982V622.663C699.305 624.529 700.544 625.389 702.073 624.581Z" fill="white"/>
<path d="M802.493 562.51L821.424 552.493C822.907 551.707 824.112 549.6 824.112 547.787C824.112 545.974 822.907 545.139 821.424 545.925L802.493 555.942C801.01 556.728 799.805 558.834 799.805 560.648C799.805 562.461 801.01 563.296 802.493 562.51Z" fill="white"/>
<path d="M786.359 567.761C786.359 569.574 787.747 570.311 789.463 569.403C791.178 568.494 792.566 566.29 792.566 564.477C792.566 562.663 791.178 561.926 789.463 562.835C787.751 563.743 786.359 565.947 786.359 567.761Z" fill="#676767"/>
<path d="M775.415 573.553C775.415 575.366 776.803 576.104 778.518 575.195C780.233 574.29 781.621 572.082 781.621 570.269C781.621 568.456 780.23 567.722 778.518 568.627C776.803 569.535 775.415 571.74 775.415 573.553Z" fill="#676767"/>
<path d="M764.466 579.346C764.466 581.159 765.854 581.892 767.57 580.988C769.285 580.079 770.673 577.875 770.673 576.062C770.673 574.248 769.285 573.515 767.57 574.42C765.858 575.328 764.466 577.532 764.466 579.346Z" fill="white"/>
<path d="M753.522 585.138C753.522 586.951 754.909 587.685 756.625 586.78C758.34 585.872 759.728 583.667 759.728 581.854C759.728 580.041 758.34 579.307 756.625 580.212C754.909 581.12 753.522 583.325 753.522 585.138Z" fill="#676767"/>
<path d="M707.41 614.733L713.787 611.358C714.74 610.855 715.51 609.503 715.51 608.339V602.155C715.51 600.992 714.737 600.457 713.787 600.96L707.41 604.335C706.457 604.838 705.687 606.191 705.687 607.354V613.538C705.687 614.705 706.457 615.239 707.41 614.733Z" fill="white"/>
<path d="M698.211 674.299L832.796 603.088C835.807 601.495 838.251 597.219 838.251 593.537V570.017C838.251 566.335 835.807 564.644 832.796 566.237L698.211 637.445C695.199 639.038 692.756 643.314 692.756 646.996V670.516C692.756 674.202 695.199 675.892 698.211 674.299Z" fill="#A53339"/>
<path opacity="0.4" d="M702.073 666.054L828.93 598.934C830.459 598.127 831.698 595.958 831.698 594.089V576.407C831.698 574.538 830.459 573.682 828.93 574.489L702.073 641.609C700.544 642.416 699.305 644.586 699.305 646.455V664.136C699.305 666.002 700.544 666.861 702.073 666.054Z" fill="white"/>
<path d="M802.493 603.983L821.424 593.966C822.907 593.18 824.112 591.073 824.112 589.26C824.112 587.447 822.907 586.612 821.424 587.398L802.493 597.414C801.01 598.2 799.805 600.307 799.805 602.12C799.805 603.934 801.01 604.765 802.493 603.983Z" fill="white"/>
<path d="M786.359 609.234C786.359 611.047 787.747 611.781 789.463 610.876C791.178 609.968 792.566 607.763 792.566 605.95C792.566 604.137 791.178 603.403 789.463 604.308C787.751 605.216 786.359 607.421 786.359 609.234Z" fill="#676767"/>
<path d="M775.415 615.026C775.415 616.839 776.803 617.573 778.518 616.668C780.233 615.76 781.621 613.555 781.621 611.742C781.621 609.929 780.23 609.195 778.518 610.1C776.803 611.009 775.415 613.213 775.415 615.026Z" fill="white"/>
<path d="M764.466 620.818C764.466 622.632 765.854 623.365 767.57 622.46C769.285 621.556 770.673 619.348 770.673 617.534C770.673 615.721 769.285 614.988 767.57 615.892C765.858 616.801 764.466 619.005 764.466 620.818Z" fill="white"/>
<path d="M753.522 626.611C753.522 628.424 754.909 629.158 756.625 628.253C758.34 627.345 759.728 625.14 759.728 623.327C759.728 621.514 758.34 620.777 756.625 621.685C754.909 622.59 753.522 624.798 753.522 626.611Z" fill="white"/>
<path d="M707.41 656.206L713.787 652.831C714.74 652.328 715.51 650.976 715.51 649.813V643.629C715.51 642.466 714.737 641.931 713.787 642.434L707.41 645.809C706.457 646.312 705.687 647.664 705.687 648.827V655.011C705.687 656.175 706.457 656.709 707.41 656.206Z" fill="white"/>
<path d="M698.211 715.773L832.796 644.562C835.807 642.968 838.251 638.692 838.251 635.01V611.491C838.251 607.808 835.807 606.118 832.796 607.711L698.211 678.918C695.199 680.511 692.756 684.787 692.756 688.47V711.989C692.756 715.675 695.199 717.366 698.211 715.773Z" fill="#A53339"/>
<path opacity="0.4" d="M702.073 707.524L828.93 640.404C830.459 639.593 831.698 637.427 831.698 635.558V617.877C831.698 616.008 830.459 615.152 828.93 615.959L702.073 683.079C700.544 683.886 699.305 686.055 699.305 687.925V705.606C699.305 707.475 700.544 708.334 702.073 707.524Z" fill="white"/>
<path d="M802.493 645.452L821.424 635.436C822.907 634.65 824.112 632.543 824.112 630.73C824.112 628.917 822.907 628.082 821.424 628.868L802.493 638.884C801.01 639.67 799.805 641.777 799.805 643.59C799.805 645.407 801.01 646.238 802.493 645.452Z" fill="white"/>
<path d="M786.359 650.707C786.359 652.52 787.747 653.254 789.463 652.349C791.178 651.441 792.566 649.236 792.566 647.423C792.566 645.61 791.178 644.872 789.463 645.781C787.751 646.689 786.359 648.894 786.359 650.707Z" fill="#676767"/>
<path d="M775.415 656.5C775.415 658.313 776.803 659.05 778.518 658.142C780.233 657.237 781.621 655.029 781.621 653.215C781.621 651.402 780.23 650.669 778.518 651.573C776.803 652.482 775.415 654.686 775.415 656.5Z" fill="#676767"/>
<path d="M764.466 662.292C764.466 664.105 765.854 664.839 767.57 663.934C769.285 663.026 770.673 660.821 770.673 659.008C770.673 657.195 769.285 656.461 767.57 657.366C765.858 658.271 764.466 660.479 764.466 662.292Z" fill="white"/>
<path d="M753.522 668.085C753.522 669.898 754.909 670.631 756.625 669.726C758.34 668.818 759.728 666.614 759.728 664.8C759.728 662.987 758.34 662.254 756.625 663.158C754.909 664.063 753.522 666.268 753.522 668.085Z" fill="#676767"/>
<path d="M707.41 697.679L713.787 694.304C714.74 693.801 715.51 692.449 715.51 691.285V685.101C715.51 683.938 714.737 683.404 713.787 683.907L707.41 687.281C706.457 687.785 705.687 689.137 705.687 690.3V696.484C705.687 697.647 706.457 698.182 707.41 697.679Z" fill="#676767"/>
<path d="M698.211 757.245L832.796 686.034C835.807 684.441 838.251 680.165 838.251 676.483V652.964C838.251 649.281 835.807 647.59 832.796 649.184L698.211 720.391C695.199 721.984 692.756 726.26 692.756 729.943V753.462C692.756 757.148 695.199 758.839 698.211 757.245Z" fill="#A53339"/>
<path opacity="0.4" d="M702.073 748.997L828.93 681.877C830.459 681.07 831.698 678.901 831.698 677.031V659.35C831.698 657.481 830.459 656.625 828.93 657.432L702.073 724.552C700.544 725.359 699.305 727.529 699.305 729.398V747.079C699.305 748.948 700.544 749.808 702.073 748.997Z" fill="white"/>
<path d="M802.493 686.925L821.424 676.909C822.907 676.123 824.112 674.016 824.112 672.203C824.112 670.39 822.907 669.555 821.424 670.341L802.493 680.357C801.01 681.143 799.805 683.25 799.805 685.063C799.805 686.88 801.01 687.711 802.493 686.925Z" fill="white"/>
<path d="M782.902 694.423C782.902 697.847 785.525 699.237 788.761 697.525C791.998 695.813 794.621 691.649 794.621 688.222C794.621 684.798 791.998 683.407 788.761 685.119C785.525 686.835 782.902 690.999 782.902 694.423Z" fill="white"/>
<path d="M760.227 706.584C760.227 708.397 761.615 709.131 763.33 708.226C765.042 707.318 766.434 705.113 766.434 703.3C766.434 701.487 765.046 700.75 763.33 701.658C761.619 702.563 760.227 704.767 760.227 706.584Z" fill="#676767"/>
<path d="M749.282 712.373C749.282 714.186 750.67 714.92 752.386 714.015C754.101 713.107 755.489 710.902 755.489 709.089C755.489 707.276 754.101 706.542 752.386 707.447C750.67 708.356 749.282 710.56 749.282 712.373Z" fill="white"/>
<path d="M738.334 718.166C738.334 719.979 739.722 720.713 741.437 719.808C743.153 718.899 744.54 716.695 744.54 714.882C744.54 713.069 743.153 712.335 741.437 713.24C739.726 714.148 738.334 716.353 738.334 718.166Z" fill="#676767"/>
<path d="M707.41 739.152L713.787 735.777C714.74 735.274 715.51 733.922 715.51 732.758V726.575C715.51 725.411 714.737 724.877 713.787 725.38L707.41 728.755C706.457 729.258 705.687 730.61 705.687 731.773V737.957C705.687 739.12 706.457 739.655 707.41 739.152Z" fill="white"/>
<path d="M222.706 782.946V475.607L356.029 443.629L380.587 430.637C386.222 427.653 396.068 428.03 402.576 431.471L425.487 443.594L496.599 443.56L475.541 740.254C475.701 742.273 474.473 744.219 471.767 745.652L338.718 837.654C333.084 840.637 323.237 840.263 316.729 836.818L228.062 789.902C224.307 787.914 222.496 785.343 222.706 782.946Z" fill="#757575"/>
<path d="M390.788 428.634C394.913 428.725 399.194 429.679 402.576 431.468L425.487 443.591L496.599 443.556V751.723C496.759 753.743 495.532 755.689 492.821 757.121L338.718 837.65C336.011 839.082 332.329 839.732 328.513 839.648L326.923 529.555L390.788 428.634Z" fill="white"/>
<path d="M337.3 838.286C332.439 840.193 325.41 840.088 319.726 838.1V525.89H337.3V838.286Z" fill="#A53339"/>
<path d="M338.718 529.591L492.821 449.062C498.456 446.078 497.751 440.873 491.243 437.428L402.576 390.512C396.068 387.067 386.225 386.693 380.587 389.677L226.484 470.206C220.849 473.189 221.555 478.395 228.062 481.839L316.729 528.756C323.237 532.2 333.08 532.574 338.718 529.591Z" fill="white"/>
<path d="M228.062 476.127L316.729 523.043C323.237 526.488 333.08 526.862 338.718 523.878L492.822 443.35C494.08 442.686 495.002 441.907 495.635 441.065C497.572 443.919 496.695 447.018 492.822 449.065L338.718 529.594C333.084 532.578 323.237 532.2 316.729 528.759L228.062 481.843C223.003 479.167 221.467 475.428 223.67 472.494C224.555 473.797 226.022 475.048 228.062 476.127Z" fill="white"/>
<path d="M334.357 496.953L436.954 442.448C439.592 441.054 439.26 438.616 436.214 437.005L394.723 415.051C391.677 413.441 387.071 413.266 384.433 414.66L281.836 469.164C279.198 470.558 279.53 472.997 282.576 474.607L324.068 496.562C327.114 498.176 331.719 498.35 334.357 496.953Z" fill="#676767"/>
<path d="M389.748 444.897L395.695 441.753C396.06 441.561 396.015 441.222 395.592 440.999L389.851 437.963C389.431 437.739 388.791 437.715 388.429 437.91L382.482 441.054C382.116 441.247 382.161 441.585 382.585 441.809L388.326 444.845C388.745 445.069 389.382 445.09 389.748 444.897Z" fill="white"/>
<path d="M369.886 455.365L375.833 452.22C376.199 452.028 376.153 451.689 375.73 451.466L369.989 448.43C369.57 448.206 368.929 448.182 368.567 448.374L362.62 451.518C362.254 451.71 362.3 452.049 362.723 452.273L368.464 455.309C368.884 455.532 369.52 455.557 369.886 455.365Z" fill="#C50036"/>
<path d="M350.021 465.831L355.968 462.687C356.334 462.495 356.288 462.156 355.865 461.932L350.124 458.896C349.701 458.673 349.064 458.648 348.702 458.844L342.755 461.988C342.389 462.18 342.435 462.519 342.858 462.743L348.599 465.779C349.022 465.999 349.659 466.024 350.021 465.831Z" fill="#C50036"/>
<path d="M330.159 476.298L336.103 473.154C336.469 472.962 336.423 472.623 336 472.399L330.258 469.363C329.835 469.14 329.199 469.115 328.833 469.307L322.89 472.452C322.524 472.644 322.569 472.983 322.992 473.206L328.734 476.242C329.157 476.466 329.797 476.49 330.159 476.298Z" fill="white"/>
<path d="M436.958 442.448L436.836 442.511C436.638 442.379 436.451 442.246 436.219 442.124L394.727 420.169C391.681 418.559 387.076 418.384 384.438 419.778L281.959 474.22C279.527 472.627 279.401 470.454 281.837 469.164L384.434 414.66C387.072 413.266 391.677 413.441 394.723 415.051L436.215 437.005C439.264 438.616 439.592 441.055 436.958 442.448Z" fill="#A53339"/>
<path d="M299.414 590.485L241.081 559.877C237.798 558.141 235.137 553.48 235.137 549.469V530.352C235.137 526.341 237.798 524.497 241.081 526.233L299.414 556.841C302.697 558.577 305.358 563.238 305.358 567.249V586.366C305.361 590.376 302.7 592.221 299.414 590.485Z" fill="#676767"/>
<path d="M238.195 525.654C237.276 526.447 236.704 527.799 236.704 529.629V548.747C236.704 552.757 239.365 557.418 242.647 559.154L300.981 589.762C302.037 590.321 303.009 590.471 303.871 590.338C302.781 591.282 301.202 591.421 299.418 590.478L241.084 559.87C237.802 558.134 235.141 553.473 235.141 549.463V530.346C235.137 527.624 236.38 525.937 238.195 525.654Z" fill="white"/>
<path d="M281.871 569.715L276.518 566.885C275.802 566.507 275.222 565.491 275.222 564.617V559.38C275.222 558.507 275.802 558.105 276.518 558.483L281.871 561.312C282.587 561.69 283.167 562.706 283.167 563.58V568.817C283.167 569.69 282.587 570.092 281.871 569.715Z" fill="#757575"/>
<path d="M263.976 560.247L258.624 557.417C257.907 557.04 257.328 556.023 257.328 555.15V549.913C257.328 549.04 257.907 548.638 258.624 549.015L263.976 551.845C264.693 552.222 265.273 553.239 265.273 554.112V559.349C265.273 560.223 264.693 560.625 263.976 560.247Z" fill="white"/>
<path d="M299.414 728.634L241.08 698.026C237.798 696.29 235.137 691.629 235.137 687.619V668.501C235.137 664.491 237.798 662.646 241.08 664.382L299.414 694.99C302.697 696.727 305.357 701.387 305.357 705.398V724.515C305.361 728.526 302.7 730.37 299.414 728.634Z" fill="#676767"/>
<path d="M238.195 663.802C237.276 664.595 236.704 665.947 236.704 667.778V686.895C236.704 690.906 239.365 695.567 242.647 697.303L300.981 727.911C302.037 728.47 303.009 728.62 303.871 728.487C302.781 729.431 301.202 729.57 299.418 728.627L241.084 698.019C237.802 696.283 235.141 691.622 235.141 687.612V668.494C235.137 665.773 236.38 664.085 238.195 663.802Z" fill="white"/>
<path d="M281.871 707.864L276.518 705.035C275.802 704.657 275.222 703.641 275.222 702.767V697.53C275.222 696.657 275.802 696.255 276.518 696.632L281.871 699.462C282.587 699.84 283.167 700.856 283.167 701.73V706.967C283.167 707.84 282.587 708.242 281.871 707.864Z" fill="#C50036"/>
<path d="M263.976 698.397L258.624 695.567C257.907 695.19 257.328 694.173 257.328 693.299V688.062C257.328 687.189 257.907 686.787 258.624 687.165L263.976 689.998C264.693 690.375 265.273 691.392 265.273 692.265V697.502C265.273 698.372 264.693 698.774 263.976 698.397Z" fill="white"/>
<path d="M299.414 797.707L241.081 767.099C237.798 765.363 235.137 760.702 235.137 756.691V737.574C235.137 733.564 237.798 731.719 241.081 733.455L299.414 764.063C302.697 765.799 305.358 770.46 305.358 774.471V793.588C305.361 797.602 302.7 799.443 299.414 797.707Z" fill="#676767"/>
<path d="M238.195 732.879C237.276 733.672 236.704 735.024 236.704 736.855V755.972C236.704 759.983 239.365 764.643 242.647 766.38L300.981 796.987C302.037 797.546 303.009 797.697 303.871 797.564C302.781 798.507 301.202 798.647 299.418 797.704L241.084 767.096C237.802 765.359 235.141 760.699 235.141 756.688V737.571C235.137 734.849 236.38 733.162 238.195 732.879Z" fill="white"/>
<path d="M281.871 776.94L276.518 774.107C275.802 773.73 275.222 772.713 275.222 771.84V766.603C275.222 765.729 275.802 765.328 276.518 765.705L281.871 768.538C282.587 768.916 283.167 769.932 283.167 770.806V776.042C283.167 776.916 282.587 777.318 281.871 776.94Z" fill="#757575"/>
<path d="M263.976 767.473L258.624 764.643C257.907 764.266 257.328 763.249 257.328 762.375V757.139C257.328 756.265 257.907 755.863 258.624 756.241L263.976 759.07C264.693 759.448 265.273 760.464 265.273 761.338V766.575C265.273 767.448 264.693 767.85 263.976 767.473Z" fill="white"/>
<path d="M299.414 659.558L241.081 628.95C237.798 627.213 235.137 622.553 235.137 618.542V599.425C235.137 595.414 237.798 593.57 241.081 595.306L299.414 625.914C302.697 627.65 305.358 632.311 305.358 636.321V655.439C305.361 659.449 302.7 661.294 299.414 659.558Z" fill="#676767"/>
<path d="M238.195 594.73C237.276 595.523 236.704 596.875 236.704 598.706V617.823C236.704 621.834 239.365 626.494 242.647 628.231L300.981 658.838C302.037 659.397 303.009 659.548 303.871 659.415C302.781 660.355 301.202 660.498 299.418 659.555L241.084 628.947C237.802 627.21 235.141 622.55 235.141 618.539V599.422C235.137 596.7 236.38 595.013 238.195 594.73Z" fill="white"/>
<path d="M281.871 638.791L276.518 635.961C275.802 635.584 275.222 634.567 275.222 633.694V628.457C275.222 627.584 275.802 627.182 276.518 627.559L281.871 630.392C282.587 630.77 283.167 631.786 283.167 632.66V637.897C283.167 638.767 282.587 639.168 281.871 638.791Z" fill="#C50036"/>
<path d="M263.976 629.323L258.624 626.493C257.907 626.116 257.328 625.1 257.328 624.226V618.989C257.328 618.116 257.907 617.714 258.624 618.091L263.976 620.921C264.693 621.298 265.273 622.315 265.273 623.189V628.425C265.273 629.299 264.693 629.701 263.976 629.323Z" fill="white"/>
<path d="M349.941 570.913L484.526 499.702C487.538 498.109 489.981 493.833 489.981 490.151V466.632C489.981 462.949 487.538 461.258 484.526 462.851L349.941 534.062C346.929 535.656 344.486 539.932 344.486 543.614V567.133C344.486 570.816 346.929 572.507 349.941 570.913Z" fill="#A53339"/>
<path opacity="0.4" d="M353.806 562.665L480.661 495.545C482.189 494.738 483.428 492.568 483.428 490.699V473.018C483.428 471.149 482.189 470.293 480.661 471.1L353.806 538.22C352.278 539.03 351.039 541.197 351.039 543.066V560.747C351.039 562.616 352.278 563.476 353.806 562.665Z" fill="white"/>
<path d="M454.223 500.597L473.154 490.58C474.637 489.794 475.842 487.688 475.842 485.874C475.842 484.061 474.637 483.226 473.154 484.012L454.223 494.029C452.74 494.815 451.536 496.921 451.536 498.735C451.539 500.548 452.74 501.379 454.223 500.597Z" fill="white"/>
<path d="M438.09 505.848C438.09 507.661 439.478 508.395 441.193 507.49C442.908 506.581 444.296 504.377 444.296 502.564C444.296 500.75 442.908 500.017 441.193 500.922C439.481 501.83 438.09 504.034 438.09 505.848Z" fill="#676767"/>
<path d="M427.145 511.64C427.145 513.453 428.533 514.187 430.248 513.282C431.96 512.377 433.351 510.169 433.351 508.356C433.351 506.543 431.964 505.809 430.248 506.714C428.533 507.622 427.145 509.827 427.145 511.64Z" fill="#676767"/>
<path d="M416.197 517.433C416.197 519.246 417.588 519.983 419.3 519.075C421.011 518.166 422.403 515.962 422.403 514.149C422.403 512.336 421.015 511.598 419.3 512.507C417.588 513.412 416.197 515.62 416.197 517.433Z" fill="white"/>
<path d="M405.252 523.222C405.252 525.035 406.639 525.772 408.355 524.864C410.066 523.959 411.458 521.751 411.458 519.938C411.458 518.124 410.07 517.391 408.355 518.296C406.639 519.204 405.252 521.408 405.252 523.222Z" fill="#676767"/>
<path d="M359.14 552.82L365.517 549.445C366.47 548.942 367.241 547.59 367.241 546.426V540.243C367.241 539.079 366.467 538.545 365.517 539.048L359.14 542.423C358.187 542.926 357.417 544.278 357.417 545.441V551.625C357.417 552.788 358.187 553.323 359.14 552.82Z" fill="#676767"/>
<path d="M349.941 612.387L484.526 541.179C487.538 539.586 489.981 535.31 489.981 531.627V508.108C489.981 504.426 487.538 502.735 484.526 504.328L349.941 575.536C346.929 577.129 344.486 581.405 344.486 585.087V608.606C344.486 612.289 346.929 613.98 349.941 612.387Z" fill="#A53339"/>
<path opacity="0.4" d="M353.806 604.138L480.661 537.018C482.189 536.211 483.428 534.042 483.428 532.173V514.491C483.428 512.622 482.189 511.766 480.661 512.573L353.806 579.693C352.278 580.5 351.039 582.67 351.039 584.539V602.22C351.039 604.089 352.278 604.949 353.806 604.138Z" fill="white"/>
<path d="M454.223 542.067L473.154 532.05C474.637 531.264 475.842 529.157 475.842 527.344C475.842 525.531 474.637 524.696 473.154 525.482L454.223 535.498C452.74 536.285 451.536 538.391 451.536 540.204C451.539 542.018 452.74 542.853 454.223 542.067Z" fill="white"/>
<path d="M438.09 547.321C438.09 549.134 439.478 549.871 441.193 548.963C442.908 548.055 444.296 545.85 444.296 544.037C444.296 542.223 442.908 541.49 441.193 542.395C439.481 543.303 438.09 545.508 438.09 547.321Z" fill="white"/>
<path d="M427.145 553.114C427.145 554.927 428.533 555.66 430.248 554.756C431.96 553.847 433.351 551.643 433.351 549.829C433.351 548.016 431.964 547.283 430.248 548.187C428.533 549.092 427.145 551.3 427.145 553.114Z" fill="#676767"/>
<path d="M416.197 558.906C416.197 560.719 417.588 561.453 419.3 560.548C421.011 559.639 422.403 557.435 422.403 555.622C422.403 553.809 421.015 553.075 419.3 553.98C417.588 554.885 416.197 557.089 416.197 558.906Z" fill="white"/>
<path d="M405.252 564.695C405.252 566.508 406.639 567.242 408.355 566.337C410.066 565.428 411.458 563.224 411.458 561.411C411.458 559.597 410.07 558.864 408.355 559.769C406.639 560.677 405.252 562.882 405.252 564.695Z" fill="#676767"/>
<path d="M359.14 594.293L365.517 590.918C366.47 590.415 367.241 589.063 367.241 587.899V581.716C367.241 580.552 366.467 580.018 365.517 580.521L359.14 583.896C358.187 584.399 357.417 585.751 357.417 586.914V593.098C357.417 594.261 358.187 594.796 359.14 594.293Z" fill="#676767"/>
<path d="M349.941 653.859L484.526 582.648C487.538 581.055 489.981 576.779 489.981 573.097V549.578C489.981 545.899 487.538 544.204 484.526 545.797L349.941 617.008C346.929 618.602 344.486 622.878 344.486 626.56V650.079C344.486 653.758 346.929 655.453 349.941 653.859Z" fill="#A53339"/>
<path opacity="0.4" d="M353.806 645.611L480.661 578.491C482.189 577.684 483.428 575.515 483.428 573.646V555.964C483.428 554.095 482.189 553.239 480.661 554.046L353.806 621.166C352.278 621.977 351.039 624.143 351.039 626.012V643.693C351.039 645.562 352.278 646.422 353.806 645.611Z" fill="white"/>
<path d="M454.223 583.539L473.154 573.523C474.637 572.737 475.842 570.63 475.842 568.817C475.842 567.004 474.637 566.169 473.154 566.955L454.223 576.971C452.74 577.757 451.536 579.864 451.536 581.677C451.539 583.491 452.74 584.326 454.223 583.539Z" fill="white"/>
<path d="M438.09 588.794C438.09 590.607 439.478 591.341 441.193 590.436C442.908 589.528 444.296 587.323 444.296 585.51C444.296 583.697 442.908 582.963 441.193 583.868C439.481 584.776 438.09 586.981 438.09 588.794Z" fill="white"/>
<path d="M427.145 594.587C427.145 596.4 428.533 597.133 430.248 596.229C431.96 595.324 433.351 593.116 433.351 591.303C433.351 589.489 431.964 588.756 430.248 589.661C428.533 590.565 427.145 592.773 427.145 594.587Z" fill="#676767"/>
<path d="M416.197 600.375C416.197 602.189 417.588 602.922 419.3 602.017C421.011 601.109 422.403 598.904 422.403 597.091C422.403 595.278 421.015 594.541 419.3 595.449C417.588 596.358 416.197 598.562 416.197 600.375Z" fill="white"/>
<path d="M405.252 606.168C405.252 607.981 406.639 608.718 408.355 607.81C410.066 606.905 411.458 604.697 411.458 602.884C411.458 601.07 410.07 600.337 408.355 601.242C406.639 602.15 405.252 604.354 405.252 606.168Z" fill="#676767"/>
<path d="M359.14 635.766L365.517 632.391C366.47 631.888 367.241 630.536 367.241 629.373V623.189C367.241 622.026 366.467 621.491 365.517 621.994L359.14 625.369C358.187 625.872 357.417 627.224 357.417 628.388V634.571C357.417 635.735 358.187 636.269 359.14 635.766Z" fill="#676767"/>
<path d="M349.941 695.329L484.526 624.122C487.538 622.529 489.981 618.252 489.981 614.57V591.051C489.981 587.368 487.538 585.678 484.526 587.271L349.941 658.478C346.929 660.071 344.486 664.348 344.486 668.03V691.549C344.486 695.231 346.929 696.926 349.941 695.329Z" fill="#A53339"/>
<path opacity="0.4" d="M353.806 687.084L480.661 619.964C482.189 619.154 483.428 616.988 483.428 615.119V597.437C483.428 595.568 482.189 594.712 480.661 595.519L353.806 662.639C352.278 663.446 351.039 665.616 351.039 667.485V685.166C351.039 687.036 352.278 687.891 353.806 687.084Z" fill="white"/>
<path d="M454.223 625.013L473.154 614.996C474.637 614.21 475.842 612.104 475.842 610.29C475.842 608.477 474.637 607.642 473.154 608.428L454.223 618.445C452.74 619.231 451.536 621.337 451.536 623.15C451.539 624.964 452.74 625.799 454.223 625.013Z" fill="white"/>
<path d="M438.09 630.267C438.09 632.08 439.478 632.814 441.193 631.909C442.908 631.001 444.296 628.796 444.296 626.983C444.296 625.17 442.908 624.436 441.193 625.341C439.481 626.246 438.09 628.454 438.09 630.267Z" fill="#676767"/>
<path d="M427.145 636.056C427.145 637.869 428.533 638.603 430.248 637.698C431.96 636.79 433.351 634.585 433.351 632.772C433.351 630.959 431.964 630.225 430.248 631.13C428.533 632.039 427.145 634.243 427.145 636.056Z" fill="#676767"/>
<path d="M416.197 641.849C416.197 643.662 417.588 644.395 419.3 643.491C421.011 642.586 422.403 640.378 422.403 638.565C422.403 636.751 421.015 636.018 419.3 636.923C417.588 637.831 416.197 640.035 416.197 641.849Z" fill="white"/>
<path d="M405.252 647.641C405.252 649.454 406.639 650.188 408.355 649.283C410.066 648.374 411.458 646.17 411.458 644.357C411.458 642.544 410.07 641.81 408.355 642.715C406.639 643.623 405.252 645.828 405.252 647.641Z" fill="#676767"/>
<path d="M359.14 677.239L365.517 673.864C366.47 673.361 367.241 672.009 367.241 670.846V664.662C367.241 663.499 366.467 662.964 365.517 663.467L359.14 666.842C358.187 667.345 357.417 668.697 357.417 669.861V676.044C357.417 677.208 358.187 677.742 359.14 677.239Z" fill="white"/>
<path d="M349.941 736.802L484.526 665.591C487.538 663.998 489.981 659.722 489.981 656.04V632.52C489.981 628.842 487.538 627.147 484.526 628.74L349.941 699.951C346.929 701.545 344.486 705.821 344.486 709.503V733.022C344.486 736.705 346.929 738.396 349.941 736.802Z" fill="#A53339"/>
<path opacity="0.4" d="M353.806 728.557L480.661 661.437C482.189 660.627 483.428 658.457 483.428 656.592V638.91C483.428 637.041 482.189 636.185 480.661 636.992L353.806 704.112C352.278 704.923 351.039 707.089 351.039 708.958V726.639C351.039 728.508 352.278 729.364 353.806 728.557Z" fill="white"/>
<path d="M454.223 666.485L473.154 656.469C474.637 655.683 475.842 653.576 475.842 651.763C475.842 649.95 474.637 649.115 473.154 649.901L454.223 659.917C452.74 660.703 451.536 662.81 451.536 664.623C451.539 666.437 452.74 667.272 454.223 666.485Z" fill="white"/>
<path d="M438.09 671.736C438.09 673.55 439.478 674.283 441.193 673.378C442.908 672.47 444.296 670.266 444.296 668.452C444.296 666.639 442.908 665.905 441.193 666.81C439.481 667.719 438.09 669.923 438.09 671.736Z" fill="#676767"/>
<path d="M427.145 677.529C427.145 679.343 428.533 680.076 430.248 679.171C431.96 678.266 433.351 676.059 433.351 674.245C433.351 672.432 431.964 671.699 430.248 672.603C428.533 673.512 427.145 675.716 427.145 677.529Z" fill="white"/>
<path d="M416.197 683.321C416.197 685.135 417.588 685.868 419.3 684.963C421.011 684.055 422.403 681.851 422.403 680.037C422.403 678.224 421.015 677.487 419.3 678.395C417.588 679.304 416.197 681.508 416.197 683.321Z" fill="white"/>
<path d="M405.252 689.114C405.252 690.927 406.639 691.661 408.355 690.756C410.066 689.848 411.458 687.643 411.458 685.83C411.458 684.017 410.07 683.283 408.355 684.188C406.639 685.096 405.252 687.301 405.252 689.114Z" fill="white"/>
<path d="M359.14 718.709L365.517 715.334C366.47 714.831 367.241 713.479 367.241 712.315V706.131C367.241 704.968 366.467 704.434 365.517 704.937L359.14 708.312C358.187 708.815 357.417 710.167 357.417 711.33V717.514C357.417 718.681 358.187 719.215 359.14 718.709Z" fill="white"/>
<path d="M349.941 778.275L484.526 707.064C487.538 705.471 489.981 701.195 489.981 697.513V673.994C489.981 670.311 487.538 668.62 484.526 670.213L349.941 741.421C346.929 743.014 344.486 747.29 344.486 750.973V774.492C344.486 778.178 346.929 779.869 349.941 778.275Z" fill="#A53339"/>
<path opacity="0.4" d="M353.806 770.03L480.661 702.911C482.189 702.1 483.428 699.934 483.428 698.065V680.383C483.428 678.514 482.189 677.658 480.661 678.465L353.806 745.585C352.278 746.392 351.039 748.562 351.039 750.431V768.112C351.039 769.978 352.278 770.837 353.806 770.03Z" fill="white"/>
<path d="M454.223 707.959L473.154 697.942C474.637 697.156 475.842 695.05 475.842 693.237C475.842 691.423 474.637 690.588 473.154 691.374L454.223 701.391C452.74 702.177 451.536 704.283 451.536 706.097C451.539 707.91 452.74 708.741 454.223 707.959Z" fill="white"/>
<path d="M438.09 713.21C438.09 715.023 439.478 715.756 441.193 714.852C442.908 713.943 444.296 711.739 444.296 709.925C444.296 708.112 442.908 707.379 441.193 708.283C439.481 709.192 438.09 711.396 438.09 713.21Z" fill="#676767"/>
<path d="M427.145 719.002C427.145 720.815 428.533 721.549 430.248 720.644C431.96 719.736 433.351 717.531 433.351 715.718C433.351 713.905 431.964 713.171 430.248 714.076C428.533 714.984 427.145 717.189 427.145 719.002Z" fill="#676767"/>
<path d="M416.197 724.795C416.197 726.608 417.588 727.341 419.3 726.437C421.011 725.532 422.403 723.324 422.403 721.511C422.403 719.697 421.015 718.964 419.3 719.869C417.588 720.777 416.197 722.981 416.197 724.795Z" fill="white"/>
<path d="M405.252 730.587C405.252 732.4 406.639 733.134 408.355 732.229C410.066 731.321 411.458 729.116 411.458 727.303C411.458 725.49 410.07 724.756 408.355 725.661C406.639 726.569 405.252 728.774 405.252 730.587Z" fill="#676767"/>
<path d="M359.14 760.182L365.517 756.807C366.47 756.304 367.241 754.952 367.241 753.788V747.605C367.241 746.441 366.467 745.907 365.517 746.41L359.14 749.785C358.187 750.288 357.417 751.64 357.417 752.803V758.987C357.417 760.154 358.187 760.688 359.14 760.182Z" fill="#676767"/>
<path d="M349.941 819.749L484.526 748.541C487.538 746.948 489.981 742.672 489.981 738.989V715.47C489.981 711.791 487.538 710.097 484.526 711.69L349.941 782.898C346.929 784.491 344.486 788.767 344.486 792.449V815.968C344.486 819.651 346.929 821.342 349.941 819.749Z" fill="#A53339"/>
<path opacity="0.4" d="M353.806 811.504L480.661 744.384C482.189 743.573 483.428 741.404 483.428 739.538V721.857C483.428 719.988 482.189 719.132 480.661 719.939L353.806 787.059C352.278 787.869 351.039 790.039 351.039 791.904V809.586C351.039 811.451 352.278 812.311 353.806 811.504Z" fill="white"/>
<path d="M454.223 749.432L473.154 739.416C474.637 738.63 475.842 736.523 475.842 734.71C475.842 732.897 474.637 732.062 473.154 732.848L454.223 742.864C452.74 743.65 451.536 745.757 451.536 747.57C451.539 749.383 452.74 750.215 454.223 749.432Z" fill="white"/>
<path d="M434.632 756.929C434.632 760.353 437.255 761.744 440.491 760.032C443.728 758.32 446.351 754.155 446.351 750.728C446.351 747.304 443.728 745.914 440.491 747.626C437.255 749.338 434.632 753.502 434.632 756.929Z" fill="white"/>
<path d="M411.957 769.087C411.957 770.9 413.345 771.634 415.06 770.729C416.772 769.821 418.164 767.616 418.164 765.803C418.164 763.99 416.776 763.256 415.06 764.161C413.349 765.07 411.957 767.274 411.957 769.087Z" fill="#676767"/>
<path d="M401.013 774.88C401.013 776.693 402.4 777.427 404.116 776.522C405.831 775.613 407.219 773.409 407.219 771.595C407.219 769.782 405.831 769.049 404.116 769.953C402.4 770.858 401.013 773.066 401.013 774.88Z" fill="white"/>
<path d="M390.068 780.668C390.068 782.482 391.456 783.215 393.171 782.31C394.883 781.406 396.274 779.198 396.274 777.384C396.274 775.571 394.883 774.837 393.171 775.742C391.456 776.651 390.068 778.855 390.068 780.668Z" fill="#676767"/>
<path d="M359.14 801.655L365.517 798.28C366.47 797.777 367.241 796.425 367.241 795.261V789.078C367.241 787.914 366.467 787.38 365.517 787.883L359.14 791.258C358.187 791.761 357.417 793.113 357.417 794.276V800.46C357.417 801.623 358.187 802.158 359.14 801.655Z" fill="white"/>
<defs>
<radialGradient id="paint0_radial_106_3" cx="0" cy="0" r="1" gradientUnits="userSpaceOnUse" gradientTransform="translate(68.2858 100.429) scale(38.583 35.384)">
<stop stop-color="#E3E3E3"/>
<stop offset="0.3513" stop-color="#E9E9E9"/>
<stop offset="1" stop-color="#EFEFEF"/>
</radialGradient>
<linearGradient id="paint1_linear_106_3" x1="130.995" y1="243.016" x2="144.718" y2="243.016" gradientUnits="userSpaceOnUse">
<stop stop-color="#C5C0B6"/>
<stop offset="0.559" stop-color="#D3CEC6"/>
<stop offset="1" stop-color="#D8D3CC"/>
</linearGradient>
</defs>
</svg>
